<svg width="16" height="19" viewBox="0 0 16 19" fill="none" xmlns="http://www.w3.org/2000/svg">
<path d="M0 16.15V14.25H1.9V7.6C1.9 6.28583 2.29583 5.11812 3.0875 4.09687C3.87917 3.07562 4.90833 2.40667 6.175 2.09V1.425C6.175 1.02917 6.31354 0.692708 6.59062 0.415625C6.86771 0.138542 7.20417 0 7.6 0C7.99583 0 8.33229 0.138542 8.60937 0.415625C8.88646 0.692708 9.025 1.02917 9.025 1.425V2.09C10.2917 2.40667 11.3208 3.07562 12.1125 4.09687C12.9042 5.11812 13.3 6.28583 13.3 7.6V14.25H15.2V16.15H0ZM7.6 19C7.0775 19 6.63021 18.814 6.25813 18.4419C5.88604 18.0698 5.7 17.6225 5.7 17.1H9.5C9.5 17.6225 9.31396 18.0698 8.94188 18.4419C8.56979 18.814 8.1225 19 7.6 19ZM3.8 14.25H11.4V7.6C11.4 6.555 11.0279 5.66042 10.2837 4.91625C9.53958 4.17208 8.645 3.8 7.6 3.8C6.555 3.8 5.66042 4.17208 4.91625 4.91625C4.17208 5.66042 3.8 6.555 3.8 7.6V14.25Z" fill="#464553"/>
</svg>
